<?xml version="1.0" encoding="UTF-8"?>
<svg width="48px" height="49px" viewBox="0 0 48 49" version="1.1" xmlns="http://www.w3.org/2000/svg" xmlns:xlink="http://www.w3.org/1999/xlink">
    <!-- Generator: Sketch 51.1 (57501) - http://www.bohemiancoding.com/sketch -->
    <title>Icon:Repo</title>
    <desc>Created with Sketch.</desc>
    <defs></defs>
    <g id="Page-1" stroke="none" stroke-width="1" fill="none" fill-rule="evenodd">
        <g id="Desktop" transform="translate(-540.000000, -637.000000)" fill="#F8E71C">
            <g id="Icon:Repo" transform="translate(540.000000, 637.000000)">
                <path d="M3.21077269,34.9125 C7.36048573,37.65865 15.1166117,39.50625 24,39.50625 C32.8833883,39.50625 40.6395143,37.65865 44.7892273,34.9125 C46.8312686,36.2638589 48,37.8328059 48,39.50625 C48,44.5803661 37.254834,48.69375 24,48.69375 C10.745166,48.69375 0,44.5803661 0,39.50625 C0,37.8328059 1.16873143,36.2638589 3.21077269,34.9125 Z" id="Combined-Shape-Copy"></path>
                <path d="M3.21077269,20.2125 C7.36048573,22.95865 15.1166117,24.80625 24,24.80625 C32.8833883,24.80625 40.6395143,22.95865 44.7892273,20.2125 C46.8312686,21.5638589 48,23.1328059 48,24.80625 C48,29.8803661 37.254834,33.99375 24,33.99375 C10.745166,33.99375 0,29.8803661 0,24.80625 C0,23.1328059 1.16873143,21.5638589 3.21077269,20.2125 Z" id="Combined-Shape-Copy"></path>
                <path d="M23.4947368,19.90625 C10.7980011,19.90625 0.505263158,15.5186405 0.505263158,10.10625 C0.505263158,4.69385945 10.7980011,0.30625 23.4947368,0.30625 C36.1914726,0.30625 46.4842105,4.69385945 46.4842105,10.10625 C46.4842105,15.5186405 36.1914726,19.90625 23.4947368,19.90625 Z M23.2421053,11.94375 C31.0554811,11.94375 37.3894737,10.4355093 37.3894737,8.575 C37.3894737,6.71449075 31.0554811,5.20625 23.2421053,5.20625 C15.4287294,5.20625 9.09473684,6.71449075 9.09473684,8.575 C9.09473684,10.4355093 15.4287294,11.94375 23.2421053,11.94375 Z" id="Combined-Shape"></path>
            </g>
        </g>
    </g>
</svg>